<?xml version="1.0" encoding="UTF-8"?>
<svg xmlns="http://www.w3.org/2000/svg" version="1.1" viewBox="0 0 1190.6 841.9">
  <defs>
    <style>
      .cls-1 {
        fill: #1d1d1b;
      }

      .cls-2 {
        fill: #3aaa35;
      }
    </style>
  </defs>
  <!-- Generator: Adobe Illustrator 28.7.1, SVG Export Plug-In . SVG Version: 1.2.0 Build 142)  -->
  <g>
    <g id="Layer_1">
      <g>
        <g>
          <path class="cls-2" d="M538.5,411.3l4.3-20.4h2.9l2.9,18h0l10.4-18h2.9l-4.3,20.4h-1.9l3.9-18.2h0l-10.5,18.2h-1.8l-2.9-18.2h0l-3.9,18.2h-1.9Z"/>
          <path class="cls-2" d="M567.7,411.7c-.9,0-1.8-.2-2.5-.5-.7-.3-1.4-.8-1.8-1.4-.5-.6-.8-1.4-.9-2.4s0-2.1.2-3.4c.2-1.1.6-2.1,1.1-3s1.1-1.8,1.8-2.4c.7-.7,1.5-1.3,2.5-1.7.9-.4,2-.6,3.1-.6s2.1.2,2.9.6c.8.4,1.4,1,1.8,1.6.4.7.7,1.5.7,2.4,0,.9,0,2-.2,3-.2,1.2-.6,2.2-1.2,3.2-.5.9-1.2,1.8-1.9,2.4-.7.7-1.6,1.2-2.5,1.6-.9.4-1.9.6-2.9.6ZM574.3,403.9c.2-.9.2-1.7.2-2.4,0-.8-.2-1.4-.4-2-.3-.6-.7-1-1.2-1.3-.6-.3-1.3-.5-2.2-.5s-1.7.2-2.4.5c-.7.3-1.3.8-1.9,1.4-.5.6-1,1.2-1.3,2-.3.7-.6,1.5-.8,2.3-.2.9-.3,1.7-.2,2.5s.2,1.4.5,2c.3.5.7,1,1.3,1.3.6.3,1.2.5,2.1.5s1.7-.2,2.4-.5c.7-.3,1.3-.8,1.8-1.4s.9-1.2,1.3-2,.6-1.5.8-2.3Z"/>
          <path class="cls-2" d="M582.8,411.3c-.2,0-.5.1-.9.2-.4,0-.8.1-1.2.1-.8,0-1.4-.2-1.8-.6-.3-.4-.4-1.2-.2-2.3l2.3-10.7h-2.1l.3-1.4h2.1l.9-4.1h1.7l-.9,4.1h2.7l-.3,1.4h-2.7l-2.1,10.1c0,.4-.1.7-.2.9,0,.3,0,.5,0,.7,0,.2.2.3.4.4.2,0,.4.1.8.1s.5,0,.7,0c.2,0,.5,0,.7-.1l-.3,1.4Z"/>
          <path class="cls-2" d="M591.3,411.7c-.9,0-1.8-.2-2.5-.5-.7-.3-1.4-.8-1.8-1.4-.5-.6-.8-1.4-.9-2.4s0-2.1.2-3.4c.2-1.1.6-2.1,1.1-3s1.1-1.8,1.8-2.4c.7-.7,1.5-1.3,2.5-1.7.9-.4,2-.6,3.1-.6s2.1.2,2.9.6c.8.4,1.4,1,1.8,1.6.4.7.7,1.5.7,2.4,0,.9,0,2-.2,3-.2,1.2-.6,2.2-1.2,3.2-.5.9-1.2,1.8-1.9,2.4-.7.7-1.6,1.2-2.5,1.6-.9.4-1.9.6-2.9.6ZM597.9,403.9c.2-.9.2-1.7.2-2.4,0-.8-.2-1.4-.4-2-.3-.6-.7-1-1.2-1.3-.6-.3-1.3-.5-2.2-.5s-1.7.2-2.4.5c-.7.3-1.3.8-1.9,1.4-.5.6-1,1.2-1.3,2-.3.7-.6,1.5-.8,2.3-.2.9-.3,1.7-.2,2.5s.2,1.4.5,2c.3.5.7,1,1.3,1.3.6.3,1.2.5,2.1.5s1.7-.2,2.4-.5c.7-.3,1.3-.8,1.8-1.4s.9-1.2,1.3-2,.6-1.5.8-2.3Z"/>
          <path class="cls-2" d="M603.1,411.3h-1.7l3.1-14.7h1.7l-.6,2.7h0c.7-1.2,1.5-2,2.4-2.4.8-.5,1.9-.7,3.1-.7l-.4,1.8c-.9,0-1.8.1-2.4.5-.7.3-1.3.8-1.8,1.3-.5.5-.9,1.2-1.2,1.9-.3.7-.6,1.5-.7,2.3l-1.5,7.2Z"/>
          <path class="cls-2" d="M611.4,417.1h-1.7l4.3-20.4h1.7l-.5,2.6h0c.3-.5.7-.9,1.2-1.3.5-.4,1-.7,1.5-.9.5-.2,1-.4,1.5-.6.5-.1,1-.2,1.5-.2,1.2,0,2.2.2,2.9.6s1.3.9,1.7,1.6c.4.7.6,1.5.6,2.4,0,.9,0,2-.3,3-.2,1-.6,2-1,2.9-.5.9-1,1.8-1.7,2.5-.7.7-1.5,1.3-2.4,1.7s-1.9.6-3,.6-2-.2-2.8-.7c-.9-.5-1.5-1.1-1.8-2.1l-1.7,8.1ZM614.2,404c-.2.8-.2,1.6-.2,2.4,0,.7.3,1.4.6,2s.7,1,1.3,1.3c.5.3,1.2.5,2,.5s1.7-.2,2.4-.5c.7-.3,1.4-.8,1.9-1.4s1-1.3,1.3-2.1c.4-.8.6-1.7.8-2.6.4-1.9.2-3.3-.5-4.3-.7-1-1.8-1.5-3.2-1.5s-1.5.2-2.2.5c-.7.3-1.3.8-1.8,1.3-.5.6-1,1.2-1.4,2s-.7,1.6-.8,2.5Z"/>
          <path class="cls-2" d="M636.6,402.7c.3,0,.7,0,1.2-.2.5,0,.9-.2,1.2-.3.3-.1.5-.4.7-.7s.2-.6.3-.9c0-.4.1-.8,0-1.2s-.2-.7-.4-.9c-.2-.3-.6-.5-1-.6-.4-.2-1-.2-1.6-.2-1.2,0-2.2.2-3.1.7-.9.5-1.5,1.3-1.9,2.6h-1.7c.2-.9.6-1.6,1.1-2.2.5-.6,1-1.1,1.6-1.5.6-.4,1.3-.7,2.1-.8.7-.2,1.5-.3,2.3-.3s1.4,0,2,.2c.6.2,1.1.4,1.5.8.4.3.7.8.8,1.4.2.6.1,1.3,0,2.2l-1.7,8c-.2.7-.1,1.1,0,1.3.2.2.7.1,1.5-.1l-.3,1.3c-.1,0-.3,0-.6.2-.3,0-.5.1-.8.1s-.5,0-.7,0c-.5,0-.9-.4-.9-.8,0-.4,0-.9,0-1.4-.9.8-1.8,1.4-2.8,1.8-1,.4-2.1.6-3.1.6s-1.2,0-1.8-.3-1-.4-1.4-.8c-.4-.4-.6-.8-.8-1.3-.2-.5-.2-1.1,0-1.9.5-2.5,2.5-4,6.1-4.4l2.4-.3ZM639.3,403.6c-.8.3-1.6.5-2.3.6s-1.5.2-2.3.2c-1.3,0-2.4.4-3.2.9-.8.5-1.4,1.2-1.6,2.2,0,.5,0,.8,0,1.2s.3.6.6.8c.3.2.6.4.9.5.4.1.7.2,1.1.2.7,0,1.4,0,2-.3.7-.2,1.3-.4,1.9-.8.6-.3,1.1-.8,1.5-1.3.4-.5.7-1.2.9-1.9l.5-2.3Z"/>
          <path class="cls-2" d="M645.5,411.3h-1.7l3.1-14.7h1.7l-.6,2.7h0c.7-1.2,1.5-2,2.4-2.4.8-.5,1.9-.7,3.1-.7l-.4,1.8c-.9,0-1.8.1-2.4.5-.7.3-1.3.8-1.8,1.3-.5.5-.9,1.2-1.2,1.9-.3.7-.6,1.5-.7,2.3l-1.5,7.2Z"/>
          <path class="cls-2" d="M658.3,411.3c-.2,0-.5.1-.9.2-.4,0-.8.1-1.2.1-.8,0-1.4-.2-1.8-.6s-.4-1.2-.2-2.3l2.3-10.7h-2.1l.3-1.4h2.1l.9-4.1h1.7l-.9,4.1h2.7l-.3,1.4h-2.7l-2.1,10.1c0,.4-.1.7-.2.9,0,.3,0,.5,0,.7,0,.2.2.3.4.4.2,0,.4.1.8.1s.5,0,.7,0c.2,0,.5,0,.7-.1l-.3,1.4Z"/>
          <path class="cls-2" d="M663,406.7c0,1.3.3,2.2.9,2.7.6.5,1.5.8,2.8.8s1.2,0,1.7-.2c.5-.2.9-.4,1.2-.6s.6-.5.8-.9.4-.7.4-1c.2-.7,0-1.3-.4-1.6-.4-.3-.9-.6-1.6-.8-.7-.2-1.4-.4-2.2-.5s-1.5-.4-2.1-.6-1.1-.7-1.5-1.2c-.3-.5-.4-1.3-.2-2.2.3-1.2.9-2.2,2-3,1.1-.8,2.4-1.2,4-1.2s2.8.4,3.6,1.1c.8.7,1.2,1.9,1,3.6h-1.7c0-1.1-.2-1.9-.8-2.4-.6-.5-1.4-.7-2.5-.7s-1.9.2-2.6.7c-.7.5-1.1,1.1-1.2,1.8-.1.5,0,.9.1,1.2.2.3.5.6.9.8.4.2.9.4,1.4.5s1.1.3,1.6.4,1.1.3,1.6.5c.5.2,1,.4,1.3.8.4.3.7.7.8,1.2.2.5.2,1.1,0,1.8-.2.7-.4,1.3-.8,1.9-.4.5-.9,1-1.5,1.3-.6.4-1.3.6-2.1.8-.8.2-1.6.3-2.5.3s-1.6-.1-2.2-.4-1.1-.6-1.5-1.1c-.4-.5-.6-1-.8-1.6s-.2-1.3,0-2h1.7Z"/>
        </g>
        <path class="cls-1" d="M673.7,296.8v-17.8h-46.7l-21.2,69.9-20.2-69.9h-49.8v17.8h12.2v66.3h-12.2v17.9h20.6v-6h2v6h21.7v-17.9h-12.6v-66.3h1.4l25.6,84.2h19.1l25.8-84.2h1.3v66.3h-12.9v17.9h46.1v-17.9h-12.2v-66.3h12.2ZM558.3,362.1h-2v-12.9h2v12.9ZM558.3,336.4h-2v-12.9h2v12.9ZM558.3,310.7h-2v-12.9h2v12.9ZM558.3,285h-2v-6h2v6Z"/>
      </g>
    </g>
  </g>
</svg>